STARTFONT 2.1
FONT line.8x16
SIZE 14 80 80
FONTBOUNDINGBOX 8 16 0 -4

STARTPROPERTIES 9
POINT_SIZE 140
WEIGHT 10
RESOLUTION_X 80
RESOLUTION_Y 80
X_HEIGHT 0
QUAD_WIDTH 8
DEFAULT_CHAR 32
FONT_DESCENT 4
FONT_ASCENT 12
ENDPROPERTIES

CHARS 96

STARTCHAR onx32
ENCODING 32
SWIDTH 500 0
DWIDTH 8 0
BBX 8 16 0 -4
BITMAP
00
00
00
00
00
00
00
00
00
00
00
00
00
00
00
00
ENDCHAR

STARTCHAR onx33
ENCODING 33
SWIDTH 500 0
DWIDTH 8 0
BBX 8 16 0 -4
BITMAP
38
38
38
38
38
38
38
3F
38
38
38
38
38
38
38
38
ENDCHAR

STARTCHAR onx34
ENCODING 34
SWIDTH 500 0
DWIDTH 8 0
BBX 8 16 0 -4
BITMAP
38
38
38
38
38
38
38
F8
38
38
38
38
38
38
38
38
ENDCHAR

STARTCHAR onx35
ENCODING 35
SWIDTH 500 0
DWIDTH 8 0
BBX 8 16 0 -4
BITMAP
00
00
00
00
00
00
FF
FF
FF
10
10
10
10
10
10
10
ENDCHAR

STARTCHAR onx36
ENCODING 36
SWIDTH 500 0
DWIDTH 8 0
BBX 8 16 0 -4
BITMAP
10
10
10
10
10
10
FF
FF
FF
00
00
00
00
00
00
00
ENDCHAR

STARTCHAR onx37
ENCODING 37
SWIDTH 500 0
DWIDTH 8 0
BBX 8 16 0 -4
BITMAP
44
44
44
44
44
44
44
47
44
44
44
44
44
44
44
44
ENDCHAR

STARTCHAR onx38
ENCODING 38
SWIDTH 500 0
DWIDTH 8 0
BBX 8 16 0 -4
BITMAP
44
44
44
44
44
44
44
C4
44
44
44
44
44
44
44
44
ENDCHAR

STARTCHAR onx39
ENCODING 39
SWIDTH 500 0
DWIDTH 8 0
BBX 8 16 0 -4
BITMAP
00
00
00
00
00
FF
00
00
00
FF
10
10
10
10
10
10
ENDCHAR

STARTCHAR onx40
ENCODING 40
SWIDTH 500 0
DWIDTH 8 0
BBX 8 16 0 -4
BITMAP
10
10
10
10
10
FF
00
00
00
FF
00
00
00
00
00
00
ENDCHAR

STARTCHAR onx41
ENCODING 41
SWIDTH 500 0
DWIDTH 8 0
BBX 8 16 0 -4
BITMAP
44
44
44
44
44
44
44
44
44
44
44
44
44
44
44
44
ENDCHAR

STARTCHAR onx42
ENCODING 42
SWIDTH 500 0
DWIDTH 8 0
BBX 8 16 0 -4
BITMAP
38
38
38
38
38
38
38
FF
38
38
38
38
38
38
38
38
ENDCHAR

STARTCHAR onx43
ENCODING 43
SWIDTH 500 0
DWIDTH 8 0
BBX 8 16 0 -4
BITMAP
10
10
10
10
10
10
FF
FF
FF
10
10
10
10
10
10
10
ENDCHAR

STARTCHAR onx44
ENCODING 44
SWIDTH 500 0
DWIDTH 8 0
BBX 8 16 0 -4
BITMAP
00
00
00
00
00
00
00
FF
00
00
00
00
00
00
00
00
ENDCHAR

STARTCHAR onx45
ENCODING 45
SWIDTH 500 0
DWIDTH 8 0
BBX 8 16 0 -4
BITMAP
10
10
10
10
10
10
10
10
10
10
10
10
10
10
10
1F
ENDCHAR

STARTCHAR onx46
ENCODING 46
SWIDTH 500 0
DWIDTH 8 0
BBX 8 16 0 -4
BITMAP
10
10
10
10
10
10
10
10
10
10
10
10
10
10
10
10
ENDCHAR

STARTCHAR onx47
ENCODING 47
SWIDTH 500 0
DWIDTH 8 0
BBX 8 16 0 -4
BITMAP
10
10
10
10
10
10
10
FF
10
10
10
10
10
10
10
10
ENDCHAR

STARTCHAR onx48
ENCODING 48
SWIDTH 500 0
DWIDTH 8 0
BBX 8 16 0 -4
BITMAP
38
38
38
38
38
38
FF
FF
FF
38
38
38
38
38
38
38
ENDCHAR

STARTCHAR onx49
ENCODING 49
SWIDTH 500 0
DWIDTH 8 0
BBX 8 16 0 -4
BITMAP
38
38
38
38
38
38
3F
3F
3F
38
38
38
38
38
38
38
ENDCHAR

STARTCHAR onx50
ENCODING 50
SWIDTH 500 0
DWIDTH 8 0
BBX 8 16 0 -4
BITMAP
38
38
38
38
38
38
F8
F8
F8
38
38
38
38
38
38
38
ENDCHAR

STARTCHAR onx51
ENCODING 51
SWIDTH 500 0
DWIDTH 8 0
BBX 8 16 0 -4
BITMAP
00
00
00
00
00
00
FF
FF
FF
38
38
38
38
38
38
38
ENDCHAR

STARTCHAR onx52
ENCODING 52
SWIDTH 500 0
DWIDTH 8 0
BBX 8 16 0 -4
BITMAP
38
38
38
38
38
38
FF
FF
FF
00
00
00
00
00
00
00
ENDCHAR

STARTCHAR onx53
ENCODING 53
SWIDTH 500 0
DWIDTH 8 0
BBX 8 16 0 -4
BITMAP
10
10
10
10
10
10
10
1F
10
10
10
10
10
10
10
10
ENDCHAR

STARTCHAR onx54
ENCODING 54
SWIDTH 500 0
DWIDTH 8 0
BBX 8 16 0 -4
BITMAP
10
10
10
10
10
10
10
F0
10
10
10
10
10
10
10
10
ENDCHAR

STARTCHAR onx55
ENCODING 55
SWIDTH 500 0
DWIDTH 8 0
BBX 8 16 0 -4
BITMAP
00
00
00
00
00
00
00
FF
10
10
10
10
10
10
10
10
ENDCHAR

STARTCHAR onx56
ENCODING 56
SWIDTH 500 0
DWIDTH 8 0
BBX 8 16 0 -4
BITMAP
10
10
10
10
10
10
10
FF
00
00
00
00
00
00
00
00
ENDCHAR

STARTCHAR onx57
ENCODING 57
SWIDTH 500 0
DWIDTH 8 0
BBX 8 16 0 -4
BITMAP
00
00
00
00
00
FF
00
00
00
FF
00
00
00
00
00
00
ENDCHAR

STARTCHAR onx58
ENCODING 58
SWIDTH 500 0
DWIDTH 8 0
BBX 8 16 0 -4
BITMAP
38
38
38
38
38
38
38
38
38
38
38
38
38
38
38
38
ENDCHAR

STARTCHAR onx59
ENCODING 59
SWIDTH 500 0
DWIDTH 8 0
BBX 8 16 0 -4
BITMAP
00
00
00
00
00
00
FF
FF
FF
00
00
00
00
00
00
00
ENDCHAR

STARTCHAR onx60
ENCODING 60
SWIDTH 500 0
DWIDTH 8 0
BBX 8 16 0 -4
BITMAP
44
44
44
44
44
44
44
FF
44
44
44
44
44
44
44
44
ENDCHAR

STARTCHAR onx61
ENCODING 61
SWIDTH 500 0
DWIDTH 8 0
BBX 8 16 0 -4
BITMAP
1F
10
10
10
10
10
10
10
10
10
10
10
10
10
10
10
ENDCHAR

STARTCHAR onx62
ENCODING 62
SWIDTH 500 0
DWIDTH 8 0
BBX 8 16 0 -4
BITMAP
10
10
10
10
10
FF
10
10
10
FF
10
10
10
10
10
10
ENDCHAR

STARTCHAR onx63
ENCODING 63
SWIDTH 500 0
DWIDTH 8 0
BBX 8 16 0 -4
BITMAP
44
44
44
44
44
FF
44
44
44
FF
44
44
44
44
44
44
ENDCHAR

STARTCHAR onx64
ENCODING 64
SWIDTH 500 0
DWIDTH 8 0
BBX 8 16 0 -4
BITMAP
10
10
10
10
10
1F
10
10
10
1F
10
10
10
10
10
10
ENDCHAR

STARTCHAR onx65
ENCODING 65
SWIDTH 500 0
DWIDTH 8 0
BBX 8 16 0 -4
BITMAP
38
38
38
38
38
38
3F
3F
3F
00
00
00
00
00
00
00
ENDCHAR

STARTCHAR onx66
ENCODING 66
SWIDTH 500 0
DWIDTH 8 0
BBX 8 16 0 -4
BITMAP
38
38
38
38
38
38
F8
FF
F8
38
38
38
38
38
38
38
ENDCHAR

STARTCHAR onx67
ENCODING 67
SWIDTH 500 0
DWIDTH 8 0
BBX 8 16 0 -4
BITMAP
FF
FF
FF
FF
FF
FF
FF
FF
FF
FF
FF
FF
FF
FF
FF
FF
ENDCHAR

STARTCHAR onx68
ENCODING 68
SWIDTH 500 0
DWIDTH 8 0
BBX 8 16 0 -4
BITMAP
F8
F8
F8
F8
F8
F8
F8
F8
F8
F8
F8
F8
F8
F8
F8
F8
ENDCHAR

STARTCHAR onx69
ENCODING 69
SWIDTH 500 0
DWIDTH 8 0
BBX 8 16 0 -4
BITMAP
E0
E0
E0
E0
E0
E0
E0
E0
E0
E0
E0
E0
E0
E0
E0
E0
ENDCHAR

STARTCHAR onx70
ENCODING 70
SWIDTH 500 0
DWIDTH 8 0
BBX 8 16 0 -4
BITMAP
10
10
10
10
10
10
10
1F
00
00
00
00
00
00
00
00
ENDCHAR

STARTCHAR onx71
ENCODING 71
SWIDTH 500 0
DWIDTH 8 0
BBX 8 16 0 -4
BITMAP
10
10
10
10
10
10
10
F0
00
00
00
00
00
00
00
00
ENDCHAR

STARTCHAR onx72
ENCODING 72
SWIDTH 500 0
DWIDTH 8 0
BBX 8 16 0 -4
BITMAP
00
00
00
00
00
00
00
FF
01
01
01
01
00
00
00
00
ENDCHAR

STARTCHAR onx73
ENCODING 73
SWIDTH 500 0
DWIDTH 8 0
BBX 8 16 0 -4
BITMAP
F0
10
10
10
10
10
10
10
10
10
F0
10
10
10
10
10
ENDCHAR

STARTCHAR onx74
ENCODING 74
SWIDTH 500 0
DWIDTH 8 0
BBX 8 16 0 -4
BITMAP
00
00
00
00
00
00
00
FF
08
08
08
08
00
00
00
00
ENDCHAR

STARTCHAR onx75
ENCODING 75
SWIDTH 500 0
DWIDTH 8 0
BBX 8 16 0 -4
BITMAP
00
00
00
00
00
00
00
FF
41
41
41
41
00
00
00
00
ENDCHAR

STARTCHAR onx76
ENCODING 76
SWIDTH 500 0
DWIDTH 8 0
BBX 8 16 0 -4
BITMAP
00
00
00
00
00
00
00
FF
49
49
49
49
00
00
00
00
ENDCHAR

STARTCHAR onx77
ENCODING 77
SWIDTH 500 0
DWIDTH 8 0
BBX 8 16 0 -4
BITMAP
38
38
38
38
38
38
FF
FF
FF
10
10
10
10
10
10
10
ENDCHAR

STARTCHAR onx78
ENCODING 78
SWIDTH 500 0
DWIDTH 8 0
BBX 8 16 0 -4
BITMAP
10
10
10
10
10
10
FF
FF
FF
38
38
38
38
38
38
38
ENDCHAR

STARTCHAR onx79
ENCODING 79
SWIDTH 500 0
DWIDTH 8 0
BBX 8 16 0 -4
BITMAP
F0
10
10
10
10
F0
10
10
10
10
F0
10
10
10
10
10
ENDCHAR

STARTCHAR onx80
ENCODING 80
SWIDTH 500 0
DWIDTH 8 0
BBX 8 16 0 -4
BITMAP
10
10
10
10
10
10
10
10
10
10
10
10
10
10
10
F0
ENDCHAR

STARTCHAR onx81
ENCODING 81
SWIDTH 500 0
DWIDTH 8 0
BBX 8 16 0 -4
BITMAP
00
00
00
00
00
00
3F
3F
3F
38
38
38
38
38
38
38
ENDCHAR

STARTCHAR onx82
ENCODING 82
SWIDTH 500 0
DWIDTH 8 0
BBX 8 16 0 -4
BITMAP
00
00
00
00
00
00
00
1F
10
10
10
10
10
10
10
10
ENDCHAR

STARTCHAR onx83
ENCODING 83
SWIDTH 500 0
DWIDTH 8 0
BBX 8 16 0 -4
BITMAP
38
38
38
38
38
38
F8
F8
F8
00
00
00
00
00
00
00
ENDCHAR

STARTCHAR onx84
ENCODING 84
SWIDTH 500 0
DWIDTH 8 0
BBX 8 16 0 -4
BITMAP
00
00
00
00
00
00
00
F0
10
10
10
10
10
10
10
10
ENDCHAR

STARTCHAR onx85
ENCODING 85
SWIDTH 500 0
DWIDTH 8 0
BBX 8 16 0 -4
BITMAP
10
10
10
10
10
F0
10
10
10
10
10
10
10
10
10
10
ENDCHAR

STARTCHAR onx86
ENCODING 86
SWIDTH 500 0
DWIDTH 8 0
BBX 8 16 0 -4
BITMAP
38
38
38
38
38
38
3F
FF
3F
38
38
38
38
38
38
38
ENDCHAR

STARTCHAR onx87
ENCODING 87
SWIDTH 500 0
DWIDTH 8 0
BBX 8 16 0 -4
BITMAP
00
00
00
00
00
00
F8
F8
F8
38
38
38
38
38
38
38
ENDCHAR

STARTCHAR onx88
ENCODING 88
SWIDTH 500 0
DWIDTH 8 0
BBX 8 16 0 -4
BITMAP
00
00
00
00
00
00
FF
FF
FF
FF
FF
FF
FF
FF
FF
FF
ENDCHAR

STARTCHAR onx89
ENCODING 89
SWIDTH 500 0
DWIDTH 8 0
BBX 8 16 0 -4
BITMAP
F0
10
10
10
10
10
10
10
10
10
10
10
10
10
10
10
ENDCHAR

STARTCHAR onx90
ENCODING 90
SWIDTH 500 0
DWIDTH 8 0
BBX 8 16 0 -4
BITMAP
00
00
00
00
00
00
00
00
00
00
00
FF
FF
FF
FF
FF
ENDCHAR

STARTCHAR onx91
ENCODING 91
SWIDTH 500 0
DWIDTH 8 0
BBX 8 16 0 -4
BITMAP
10
10
10
10
10
F0
10
10
10
F0
10
10
10
10
10
10
ENDCHAR

STARTCHAR onx92
ENCODING 92
SWIDTH 500 0
DWIDTH 8 0
BBX 8 16 0 -4
BITMAP
00
00
00
00
00
00
00
E7
00
00
00
00
00
00
00
00
ENDCHAR

STARTCHAR onx93
ENCODING 93
SWIDTH 500 0
DWIDTH 8 0
BBX 8 16 0 -4
BITMAP
44
44
44
44
44
44
44
FF
00
00
00
00
00
00
00
00
ENDCHAR

STARTCHAR onx94
ENCODING 94
SWIDTH 500 0
DWIDTH 8 0
BBX 8 16 0 -4
BITMAP
00
00
00
00
00
00
00
38
00
00
00
00
00
00
00
00
ENDCHAR

STARTCHAR onx95
ENCODING 95
SWIDTH 500 0
DWIDTH 8 0
BBX 8 16 0 -4
BITMAP
00
00
00
00
00
00
00
FF
44
44
44
44
44
44
44
44
ENDCHAR

STARTCHAR onx96
ENCODING 96
SWIDTH 500 0
DWIDTH 8 0
BBX 8 16 0 -4
BITMAP
10
10
10
10
10
1F
10
10
10
1F
10
10
10
10
10
10
ENDCHAR

STARTCHAR onx97
ENCODING 97
SWIDTH 500 0
DWIDTH 8 0
BBX 8 16 0 -4
BITMAP
38
38
38
38
38
38
3F
3F
3F
00
00
00
00
00
00
00
ENDCHAR

STARTCHAR onx98
ENCODING 98
SWIDTH 500 0
DWIDTH 8 0
BBX 8 16 0 -4
BITMAP
38
38
38
38
38
38
F8
FF
F8
38
38
38
38
38
38
38
ENDCHAR

STARTCHAR onx99
ENCODING 99
SWIDTH 500 0
DWIDTH 8 0
BBX 8 16 0 -4
BITMAP
FF
FF
FF
FF
FF
FF
FF
FF
FF
FF
FF
FF
FF
FF
FF
FF
ENDCHAR

STARTCHAR onx100
ENCODING 100
SWIDTH 500 0
DWIDTH 8 0
BBX 8 16 0 -4
BITMAP
F8
F8
F8
F8
F8
F8
F8
F8
F8
F8
F8
F8
F8
F8
F8
F8
ENDCHAR

STARTCHAR onx101
ENCODING 101
SWIDTH 500 0
DWIDTH 8 0
BBX 8 16 0 -4
BITMAP
E0
E0
E0
E0
E0
E0
E0
E0
E0
E0
E0
E0
E0
E0
E0
E0
ENDCHAR

STARTCHAR onx102
ENCODING 102
SWIDTH 500 0
DWIDTH 8 0
BBX 8 16 0 -4
BITMAP
10
10
10
10
10
10
10
1F
00
00
00
00
00
00
00
00
ENDCHAR

STARTCHAR onx103
ENCODING 103
SWIDTH 500 0
DWIDTH 8 0
BBX 8 16 0 -4
BITMAP
10
10
10
10
10
10
10
F0
00
00
00
00
00
00
00
00
ENDCHAR

STARTCHAR onx104
ENCODING 104
SWIDTH 500 0
DWIDTH 8 0
BBX 8 16 0 -4
BITMAP
00
00
00
00
00
00
00
FF
01
01
01
01
00
00
00
00
ENDCHAR

STARTCHAR onx105
ENCODING 105
SWIDTH 500 0
DWIDTH 8 0
BBX 8 16 0 -4
BITMAP
F0
10
10
10
10
10
10
10
10
10
F0
10
10
10
10
10
ENDCHAR

STARTCHAR onx106
ENCODING 106
SWIDTH 500 0
DWIDTH 8 0
BBX 8 16 0 -4
BITMAP
00
00
00
00
00
00
00
FF
08
08
08
08
00
00
00
00
ENDCHAR

STARTCHAR onx107
ENCODING 107
SWIDTH 500 0
DWIDTH 8 0
BBX 8 16 0 -4
BITMAP
00
00
00
00
00
00
00
FF
41
41
41
41
00
00
00
00
ENDCHAR

STARTCHAR onx108
ENCODING 108
SWIDTH 500 0
DWIDTH 8 0
BBX 8 16 0 -4
BITMAP
00
00
00
00
00
00
00
FF
49
49
49
49
00
00
00
00
ENDCHAR

STARTCHAR onx109
ENCODING 109
SWIDTH 500 0
DWIDTH 8 0
BBX 8 16 0 -4
BITMAP
38
38
38
38
38
38
FF
FF
FF
10
10
10
10
10
10
10
ENDCHAR

STARTCHAR onx110
ENCODING 110
SWIDTH 500 0
DWIDTH 8 0
BBX 8 16 0 -4
BITMAP
10
10
10
10
10
10
FF
FF
FF
38
38
38
38
38
38
38
ENDCHAR

STARTCHAR onx111
ENCODING 111
SWIDTH 500 0
DWIDTH 8 0
BBX 8 16 0 -4
BITMAP
F0
10
10
10
10
F0
10
10
10
10
F0
10
10
10
10
10
ENDCHAR

STARTCHAR onx112
ENCODING 112
SWIDTH 500 0
DWIDTH 8 0
BBX 8 16 0 -4
BITMAP
10
10
10
10
10
10
10
10
10
10
10
10
10
10
10
F0
ENDCHAR

STARTCHAR onx113
ENCODING 113
SWIDTH 500 0
DWIDTH 8 0
BBX 8 16 0 -4
BITMAP
00
00
00
00
00
00
3F
3F
3F
38
38
38
38
38
38
38
ENDCHAR

STARTCHAR onx114
ENCODING 114
SWIDTH 500 0
DWIDTH 8 0
BBX 8 16 0 -4
BITMAP
00
00
00
00
00
00
00
1F
10
10
10
10
10
10
10
10
ENDCHAR

STARTCHAR onx115
ENCODING 115
SWIDTH 500 0
DWIDTH 8 0
BBX 8 16 0 -4
BITMAP
38
38
38
38
38
38
F8
F8
F8
00
00
00
00
00
00
00
ENDCHAR

STARTCHAR onx116
ENCODING 116
SWIDTH 500 0
DWIDTH 8 0
BBX 8 16 0 -4
BITMAP
00
00
00
00
00
00
00
F0
10
10
10
10
10
10
10
10
ENDCHAR

STARTCHAR onx117
ENCODING 117
SWIDTH 500 0
DWIDTH 8 0
BBX 8 16 0 -4
BITMAP
10
10
10
10
10
F0
10
10
10
10
10
10
10
10
10
10
ENDCHAR

STARTCHAR onx118
ENCODING 118
SWIDTH 500 0
DWIDTH 8 0
BBX 8 16 0 -4
BITMAP
38
38
38
38
38
38
3F
FF
3F
38
38
38
38
38
38
38
ENDCHAR

STARTCHAR onx119
ENCODING 119
SWIDTH 500 0
DWIDTH 8 0
BBX 8 16 0 -4
BITMAP
00
00
00
00
00
00
F8
F8
F8
38
38
38
38
38
38
38
ENDCHAR

STARTCHAR onx120
ENCODING 120
SWIDTH 500 0
DWIDTH 8 0
BBX 8 16 0 -4
BITMAP
00
00
00
00
00
00
FF
FF
FF
FF
FF
FF
FF
FF
FF
FF
ENDCHAR

STARTCHAR onx121
ENCODING 121
SWIDTH 500 0
DWIDTH 8 0
BBX 8 16 0 -4
BITMAP
F0
10
10
10
10
10
10
10
10
10
10
10
10
10
10
10
ENDCHAR

STARTCHAR onx122
ENCODING 122
SWIDTH 500 0
DWIDTH 8 0
BBX 8 16 0 -4
BITMAP
00
00
00
00
00
00
00
00
00
00
00
FF
FF
FF
FF
FF
ENDCHAR

STARTCHAR onx123
ENCODING 123
SWIDTH 500 0
DWIDTH 8 0
BBX 8 16 0 -4
BITMAP
10
10
10
10
10
F0
10
10
10
F0
10
10
10
10
10
10
ENDCHAR

STARTCHAR onx124
ENCODING 124
SWIDTH 500 0
DWIDTH 8 0
BBX 8 16 0 -4
BITMAP
00
00
00
00
00
00
00
E7
00
00
00
00
00
00
00
00
ENDCHAR

STARTCHAR onx125
ENCODING 125
SWIDTH 500 0
DWIDTH 8 0
BBX 8 16 0 -4
BITMAP
44
44
44
44
44
44
44
FF
00
00
00
00
00
00
00
00
ENDCHAR

STARTCHAR onx126
ENCODING 126
SWIDTH 500 0
DWIDTH 8 0
BBX 8 16 0 -4
BITMAP
00
00
00
00
00
00
00
38
00
00
00
00
00
00
00
00
ENDCHAR

STARTCHAR onx127
ENCODING 127
SWIDTH 500 0
DWIDTH 8 0
BBX 8 16 0 -4
BITMAP
00
00
00
00
00
00
00
00
00
00
00
00
00
00
00
00
ENDCHAR
ENDFONT
